<?xml version="1.0" standalone="no"?><!DOCTYPE svg PUBLIC "-//W3C//DTD SVG 1.1//EN" "http://www.w3.org/Graphics/SVG/1.1/DTD/svg11.dtd"><svg t="1586526189487" class="icon" viewBox="0 0 1024 1024" version="1.1" xmlns="http://www.w3.org/2000/svg" p-id="2450" xmlns:xlink="http://www.w3.org/1999/xlink" width="64" height="64"><defs><style type="text/css"></style></defs><path d="M949.952 435.328c0.416 2.08 9.344 50.368 9.344 88.416 0 38.816-9.216 87.904-9.344 88.384-5.248 27.84-22.144 45.92-43.776 45.92H902.4c-60.416 0-109.472 49.568-109.472 110.56 0 19.648 9.44 42.016 9.536 42.208 10.816 24.544 2.464 54.624-20.8 70.912l-114.208 63.584a62.016 62.016 0 0 1-68.832-15.104c-12.416-13.696-55.424-52.928-89.024-52.928-30.976 0-72.896 34.944-88.384 51.936-11.04 12.128-28.128 19.36-45.504 19.36-8.32 0-16.192-1.6-24.832-5.44l-110.08-62.304a58.336 58.336 0 0 1-19.264-70.112c0.096-0.192 9.536-22.368 9.536-42.112 0-60.896-49.056-110.56-109.44-110.56h-4.576c-20.864 0-37.76-17.984-43.008-45.92-0.416-2.08-9.344-50.56-9.344-88.384 0-37.952 8.96-86.4 9.344-88.416 5.248-27.904 22.048-45.888 43.68-45.888h3.776c60.416 0 109.472-49.6 109.472-110.56 0-19.968-9.44-42.016-9.536-42.24-10.816-24.512-2.464-54.72 20.864-71.008l116.32-64.256c7.168-3.104 14.912-4.576 23.04-4.576 17.408 0 34.368 7.04 45.504 18.976 12.224 12.896 54.432 49.856 87.04 49.856 32.256 0 74.272-36.16 86.4-48.864 11.136-11.616 28-18.56 45.184-18.56 8.352 0 16.32 1.568 24.96 5.344l112.224 63.168c21.856 15.392 30.208 45.504 19.392 70.144-0.096 0.192-9.536 22.336-9.536 42.112 0 60.896 49.152 110.56 109.44 110.56h4.576c20.96-0.096 37.856 17.888 43.104 45.792z m-279.328 100.512c0-88.192-71.104-159.904-158.4-159.904-87.36 0-158.464 71.68-158.464 159.904 0 88.224 71.04 159.936 158.432 159.936 87.424 0 158.432-71.712 158.432-159.936z" p-id="2451" fill="#515151"></path></svg>